  0
SECTION
  2
HEADER
  9
$ACADVER
  1
AC1009
  9
$INSBASE
 10
0.0
 20
0.0
 30
0.0
  9
$EXTMIN
 10
0.0
 20
0.0
 30
0.0
  9
$EXTMAX
 10
0.0
 20
0.0
 30
0.0
  0
ENDSEC
  0
SECTION
  2
TABLES
  0
TABLE
  2
VPORT
 70
0
  0
ENDTAB
  0
TABLE
  2
LTYPE
 70
1
  0
LTYPE
  2
CONTINUOUS
 70
0
  3
Solid line
 72
65
 73
0
 40
0.0
  0
ENDTAB
  0
TABLE
  2
LAYER
 70
1
  0
LAYER
  2
0
 70
64
 62
7
  6
continuous
  0
ENDTAB
  0
TABLE
  2
STYLE
 70
1
  0
STYLE
  2
STANDARD
 70
0
 40
0
 41
1.0
 50
0.0
 71
0
 42
1
 3
ARIAL.TTF
 4

  0
ENDTAB
  0
TABLE
  2
VIEW
 70
0
  0
ENDTAB
  0
ENDSEC
  0
SECTION
  2
BLOCKS
  0
BLOCK
  8
0
  2
SKETCH007
 70
0
 10
0.0
 20
0.0
 30
0.0
  3
SKETCH007
  0
LINE
  8
0
 62
7
 10
0.0
 20
0.0
 30
0.0
 11
-20.0
 21
0.0
 31
0.0
  0
LINE
  8
0
 62
7
 10
0.0
 20
0.0
 30
0.0
 11
20.0
 21
0.0
 31
0.0
  0
LINE
  8
0
 62
7
 10
20.0
 20
0.0
 30
0.0
 11
20.0
 21
10.0
 31
0.0
  0
LINE
  8
0
 62
7
 10
20.0
 20
10.0
 30
0.0
 11
11.5
 21
10.0
 31
0.0
  0
LINE
  8
0
 62
7
 10
11.5
 20
10.0
 30
0.0
 11
11.5
 21
16.0
 31
0.0
  0
LINE
  8
0
 62
7
 10
11.5
 20
16.0
 30
0.0
 11
6.5
 21
16.0
 31
0.0
  0
LINE
  8
0
 62
7
 10
6.5
 20
16.0
 30
0.0
 11
6.5
 21
14.0
 31
0.0
  0
LINE
  8
0
 62
7
 10
6.5
 20
14.0
 30
0.0
 11
11.5
 21
14.0
 31
0.0
  0
LINE
  8
0
 62
7
 10
11.5
 20
14.0
 30
0.0
 11
11.5
 21
16.0
 31
0.0
  0
LINE
  8
0
 62
7
 10
11.5
 20
16.0
 30
0.0
 11
6.5
 21
16.0
 31
0.0
  0
LINE
  8
0
 62
7
 10
6.5
 20
16.0
 30
0.0
 11
6.5
 21
18.0
 31
0.0
  0
LINE
  8
0
 62
7
 10
6.5
 20
18.0
 30
0.0
 11
11.5
 21
18.0
 31
0.0
  0
LINE
  8
0
 62
7
 10
11.5
 20
18.0
 30
0.0
 11
11.5
 21
30.0
 31
0.0
  0
LINE
  8
0
 62
7
 10
11.5
 20
30.0
 30
0.0
 11
6.5
 21
30.0
 31
0.0
  0
LINE
  8
0
 62
7
 10
6.5
 20
30.0
 30
0.0
 11
6.5
 21
18.0
 31
0.0
  0
LINE
  8
0
 62
7
 10
6.5
 20
18.0
 30
0.0
 11
11.5
 21
18.0
 31
0.0
  0
LINE
  8
0
 62
7
 10
11.5
 20
18.0
 30
0.0
 11
11.5
 21
30.0
 31
0.0
  0
LINE
  8
0
 62
7
 10
11.5
 20
30.0
 30
0.0
 11
6.5
 21
30.0
 31
0.0
  0
LINE
  8
0
 62
7
 10
6.5
 20
30.0
 30
0.0
 11
6.5
 21
32.0
 31
0.0
  0
LINE
  8
0
 62
7
 10
6.5
 20
32.0
 30
0.0
 11
6.5
 21
34.0
 31
0.0
  0
LINE
  8
0
 62
7
 10
6.5
 20
34.0
 30
0.0
 11
11.5
 21
34.0
 31
0.0
  0
LINE
  8
0
 62
7
 10
11.5
 20
34.0
 30
0.0
 11
11.5
 21
32.0
 31
0.0
  0
LINE
  8
0
 62
7
 10
11.5
 20
32.0
 30
0.0
 11
6.5
 21
32.0
 31
0.0
  0
LINE
  8
0
 62
7
 10
6.5
 20
32.0
 30
0.0
 11
11.5
 21
32.0
 31
0.0
  0
LINE
  8
0
 62
7
 10
11.5
 20
32.0
 30
0.0
 11
11.5
 21
37.99762496142058
 31
0.0
  0
LINE
  8
0
 62
7
 10
11.5
 20
37.99762496142058
 30
0.0
 11
20.0
 21
37.99762496142058
 31
0.0
  0
POLYLINE
  8
0
 62
7
 70
0
 66
1
 10
0.0
 20
0.0
 30
0.0
  0
VERTEX
  8
0
 10
20.0
 20
37.99762496142058
 30
0.0
  0
VERTEX
  8
0
 10
19.632227340489464
 20
45.271701372107984
 30
0.0
  0
VERTEX
  8
0
 10
18.561058224371443
 20
50.73050598777038
 30
0.0
  0
VERTEX
  8
0
 10
16.83410177479898
 20
54.637975203911516
 30
0.0
  0
VERTEX
  8
0
 10
14.498366676075733
 20
57.25542037105913
 30
0.0
  0
VERTEX
  8
0
 10
11.600510496066951
 20
58.84232922330453
 30
0.0
  0
VERTEX
  8
0
 10
8.187061622119005
 20
59.65701666956773
 30
0.0
  0
VERTEX
  8
0
 10
4.304614693074953
 20
59.95712847583878
 30
0.0
  0
VERTEX
  8
0
 10
0.0
 20
60.0
 30
0.0
  0
SEQEND
  8
0
  0
POLYLINE
  8
0
 62
7
 70
0
 66
1
 10
0.0
 20
0.0
 30
0.0
  0
VERTEX
  8
0
 10
-20.0
 20
37.99762496142058
 30
0.0
  0
VERTEX
  8
0
 10
-19.6328125
 20
45.26012765970167
 30
0.0
  0
VERTEX
  8
0
 10
-18.5625
 20
50.7177480305993
 30
0.0
  0
VERTEX
  8
0
 10
-16.8359375
 20
54.62832640659682
 30
0.0
  0
VERTEX
  8
0
 10
-14.5
 20
57.24970312017757
 30
0.0
  0
VERTEX
  8
0
 10
-11.6015625
 20
58.83971850382491
 30
0.0
  0
VERTEX
  8
0
 10
-8.1875
 20
59.65621289002219
 30
0.0
  0
VERTEX
  8
0
 10
-4.3046875
 20
59.95702661125277
 30
0.0
  0
VERTEX
  8
0
 10
0.0
 20
60.0
 30
0.0
  0
SEQEND
  8
0
  0
LINE
  8
0
 62
7
 10
-11.5
 20
37.99762496142058
 30
0.0
 11
-20.0
 21
37.99762496142058
 31
0.0
  0
LINE
  8
0
 62
7
 10
-11.5
 20
32.0
 30
0.0
 11
-11.5
 21
37.99762496142058
 31
0.0
  0
LINE
  8
0
 62
7
 10
-11.5
 20
32.0
 30
0.0
 11
-6.5
 21
32.0
 31
0.0
  0
LINE
  8
0
 62
7
 10
-6.5
 20
32.0
 30
0.0
 11
-11.5
 21
32.0
 31
0.0
  0
LINE
  8
0
 62
7
 10
-11.5
 20
34.0
 30
0.0
 11
-11.5
 21
32.0
 31
0.0
  0
LINE
  8
0
 62
7
 10
-6.5
 20
34.0
 30
0.0
 11
-11.5
 21
34.0
 31
0.0
  0
LINE
  8
0
 62
7
 10
-6.5
 20
32.0
 30
0.0
 11
-6.5
 21
34.0
 31
0.0
  0
LINE
  8
0
 62
7
 10
-6.5
 20
30.0
 30
0.0
 11
-6.5
 21
32.0
 31
0.0
  0
LINE
  8
0
 62
7
 10
-6.5
 20
30.0
 30
0.0
 11
-6.5
 21
18.0
 31
0.0
  0
LINE
  8
0
 62
7
 10
-6.5
 20
18.0
 30
0.0
 11
-11.5
 21
18.0
 31
0.0
  0
LINE
  8
0
 62
7
 10
-11.5
 20
18.0
 30
0.0
 11
-11.5
 21
30.0
 31
0.0
  0
LINE
  8
0
 62
7
 10
-11.5
 20
30.0
 30
0.0
 11
-6.5
 21
30.0
 31
0.0
  0
LINE
  8
0
 62
7
 10
-11.5
 20
30.0
 30
0.0
 11
-6.5
 21
30.0
 31
0.0
  0
LINE
  8
0
 62
7
 10
-11.5
 20
18.0
 30
0.0
 11
-11.5
 21
30.0
 31
0.0
  0
LINE
  8
0
 62
7
 10
-6.5
 20
18.0
 30
0.0
 11
-11.5
 21
18.0
 31
0.0
  0
LINE
  8
0
 62
7
 10
-6.5
 20
16.0
 30
0.0
 11
-6.5
 21
18.0
 31
0.0
  0
LINE
  8
0
 62
7
 10
-6.5
 20
16.0
 30
0.0
 11
-6.5
 21
14.0
 31
0.0
  0
LINE
  8
0
 62
7
 10
-6.5
 20
14.0
 30
0.0
 11
-11.5
 21
14.0
 31
0.0
  0
LINE
  8
0
 62
7
 10
-11.5
 20
14.0
 30
0.0
 11
-11.5
 21
16.0
 31
0.0
  0
LINE
  8
0
 62
7
 10
-11.5
 20
16.0
 30
0.0
 11
-6.5
 21
16.0
 31
0.0
  0
LINE
  8
0
 62
7
 10
-11.5
 20
16.0
 30
0.0
 11
-6.5
 21
16.0
 31
0.0
  0
LINE
  8
0
 62
7
 10
-11.5
 20
10.0
 30
0.0
 11
-11.5
 21
16.0
 31
0.0
  0
LINE
  8
0
 62
7
 10
-20.0
 20
10.0
 30
0.0
 11
-11.5
 21
10.0
 31
0.0
  0
LINE
  8
0
 62
7
 10
-20.0
 20
0.0
 30
0.0
 11
-20.0
 21
10.0
 31
0.0
  0
CIRCLE
  8
0
 62
7
 10
0.0
 20
17.0
 30
0.0
 40
1.5
  0
CIRCLE
  8
0
 62
7
 10
0.0
 20
17.0
 30
0.0
 40
2.5
  0
LINE
  8
0
 62
7
 10
0.0
 20
31.0
 30
0.0
 11
-1.0
 21
30.999999999999996
 31
0.0
  0
LINE
  8
0
 62
7
 10
0.0
 20
31.0
 30
0.0
 11
1.0
 21
31.0
 31
0.0
  0
LINE
  8
0
 62
7
 10
0.0
 20
31.0
 30
0.0
 11
0.0
 21
32.0
 31
0.0
  0
LINE
  8
0
 62
7
 10
0.0
 20
31.0
 30
0.0
 11
0.0
 21
30.0
 31
0.0
  0
LINE
  8
0
 62
7
 10
5.0
 20
41.5
 30
0.0
 11
6.6
 21
41.5
 31
0.0
  0
LINE
  8
0
 62
7
 10
6.6
 20
41.5
 30
0.0
 11
6.6
 21
32.5
 31
0.0
  0
LINE
  8
0
 62
7
 10
6.6
 20
32.5
 30
0.0
 11
5.0
 21
32.5
 31
0.0
  0
LINE
  8
0
 62
7
 10
5.0
 20
32.5
 30
0.0
 11
5.0
 21
41.5
 31
0.0
  0
LINE
  8
0
 62
7
 10
9.899999999999997
 20
41.0
 30
0.0
 11
11.499999999999996
 21
41.0
 31
0.0
  0
LINE
  8
0
 62
7
 10
11.499999999999996
 20
41.0
 30
0.0
 11
11.499999999999996
 21
33.0
 31
0.0
  0
LINE
  8
0
 62
7
 10
11.499999999999996
 20
33.0
 30
0.0
 11
9.899999999999997
 21
33.0
 31
0.0
  0
LINE
  8
0
 62
7
 10
9.899999999999997
 20
33.0
 30
0.0
 11
9.899999999999997
 21
41.0
 31
0.0
  0
LINE
  8
0
 62
7
 10
-5.0
 20
41.5
 30
0.0
 11
-6.6
 21
41.5
 31
0.0
  0
LINE
  8
0
 62
7
 10
-6.6
 20
41.5
 30
0.0
 11
-6.6
 21
32.5
 31
0.0
  0
LINE
  8
0
 62
7
 10
-6.6
 20
32.5
 30
0.0
 11
-5.0
 21
32.5
 31
0.0
  0
LINE
  8
0
 62
7
 10
-5.0
 20
32.5
 30
0.0
 11
-5.0
 21
41.5
 31
0.0
  0
LINE
  8
0
 62
7
 10
-9.899999999999997
 20
33.0
 30
0.0
 11
-9.899999999999997
 21
41.0
 31
0.0
  0
LINE
  8
0
 62
7
 10
-9.899999999999997
 20
41.0
 30
0.0
 11
-11.499999999999996
 21
41.0
 31
0.0
  0
LINE
  8
0
 62
7
 10
-11.499999999999996
 20
41.0
 30
0.0
 11
-11.499999999999996
 21
33.0
 31
0.0
  0
LINE
  8
0
 62
7
 10
-11.499999999999996
 20
33.0
 30
0.0
 11
-9.899999999999997
 21
33.0
 31
0.0
  0
ENDBLK
  0
ENDSEC
  0
SECTION
  2
ENTITIES
  0
INSERT
  2
SKETCH007
  8
0
 62
7
 10
0.0
 20
0.0
 30
0.0
  0
ENDSEC
  0
EOF
