  0
SECTION
  2
HEADER
  9
$ACADVER
  1
AC1009
  9
$INSBASE
 10
0.0
 20
0.0
 30
0.0
  9
$EXTMIN
 10
0.0
 20
0.0
 30
0.0
  9
$EXTMAX
 10
0.0
 20
0.0
 30
0.0
  0
ENDSEC
  0
SECTION
  2
TABLES
  0
TABLE
  2
VPORT
 70
0
  0
ENDTAB
  0
TABLE
  2
LTYPE
 70
1
  0
LTYPE
  2
CONTINUOUS
 70
0
  3
Solid line
 72
65
 73
0
 40
0.0
  0
ENDTAB
  0
TABLE
  2
LAYER
 70
1
  0
LAYER
  2
0
 70
64
 62
7
  6
continuous
  0
ENDTAB
  0
TABLE
  2
STYLE
 70
1
  0
STYLE
  2
STANDARD
 70
0
 40
0
 41
1.0
 50
0.0
 71
0
 42
1
 3
ARIAL.TTF
 4

  0
ENDTAB
  0
TABLE
  2
VIEW
 70
0
  0
ENDTAB
  0
ENDSEC
  0
SECTION
  2
BLOCKS
  0
BLOCK
  8
0
  2
SKETCH
 70
0
 10
0.0
 20
0.0
 30
0.0
  3
SKETCH
  0
LINE
  8
0
 62
7
 10
22.5
 20
0.0
 30
0.0
 11
0.0
 21
0.0
 31
0.0
  0
LINE
  8
0
 62
7
 10
22.5
 20
0.0
 30
0.0
 11
22.5
 21
10.0
 31
0.0
  0
LINE
  8
0
 62
7
 10
22.5
 20
10.0
 30
0.0
 11
14.0
 21
10.0
 31
0.0
  0
LINE
  8
0
 62
7
 10
14.0
 20
10.0
 30
0.0
 11
14.0
 21
16.0
 31
0.0
  0
LINE
  8
0
 62
7
 10
14.0
 20
16.0
 30
0.0
 11
9.0
 21
16.0
 31
0.0
  0
LINE
  8
0
 62
7
 10
9.0
 20
16.0
 30
0.0
 11
9.0
 21
18.0
 31
0.0
  0
LINE
  8
0
 62
7
 10
9.0
 20
18.0
 30
0.0
 11
14.0
 21
18.0
 31
0.0
  0
LINE
  8
0
 62
7
 10
14.0
 20
18.0
 30
0.0
 11
14.0
 21
30.0
 31
0.0
  0
LINE
  8
0
 62
7
 10
14.0
 20
30.0
 30
0.0
 11
9.0
 21
30.0
 31
0.0
  0
LINE
  8
0
 62
7
 10
9.0
 20
30.0
 30
0.0
 11
9.0
 21
32.0
 31
0.0
  0
LINE
  8
0
 62
7
 10
9.0
 20
32.0
 30
0.0
 11
14.0
 21
32.0
 31
0.0
  0
LINE
  8
0
 62
7
 10
14.0
 20
32.0
 30
0.0
 11
14.0
 21
38.0
 31
0.0
  0
LINE
  8
0
 62
7
 10
14.0
 20
38.0
 30
0.0
 11
22.5
 21
38.0
 31
0.0
  0
POLYLINE
  8
0
 62
7
 70
0
 66
1
 10
0.0
 20
0.0
 30
0.0
  0
VERTEX
  8
0
 10
22.5
 20
38.0
 30
0.0
  0
VERTEX
  8
0
 10
22.1279296875
 20
45.26171875
 30
0.0
  0
VERTEX
  8
0
 10
21.0234375
 20
50.71875
 30
0.0
  0
VERTEX
  8
0
 10
19.2041015625
 20
54.62890625
 30
0.0
  0
VERTEX
  8
0
 10
16.6875
 20
57.25
 30
0.0
  0
VERTEX
  8
0
 10
13.4912109375
 20
58.83984375
 30
0.0
  0
VERTEX
  8
0
 10
9.6328125
 20
59.65625
 30
0.0
  0
VERTEX
  8
0
 10
5.1298828125
 20
59.95703125
 30
0.0
  0
VERTEX
  8
0
 10
0.0
 20
60.0
 30
0.0
  0
SEQEND
  8
0
  0
POLYLINE
  8
0
 62
7
 70
0
 66
1
 10
0.0
 20
0.0
 30
0.0
  0
VERTEX
  8
0
 10
-22.5
 20
38.0
 30
0.0
  0
VERTEX
  8
0
 10
-22.1279296875
 20
45.26171875
 30
0.0
  0
VERTEX
  8
0
 10
-21.0234375
 20
50.71875
 30
0.0
  0
VERTEX
  8
0
 10
-19.2041015625
 20
54.62890625
 30
0.0
  0
VERTEX
  8
0
 10
-16.6875
 20
57.25
 30
0.0
  0
VERTEX
  8
0
 10
-13.4912109375
 20
58.83984375
 30
0.0
  0
VERTEX
  8
0
 10
-9.6328125
 20
59.65625
 30
0.0
  0
VERTEX
  8
0
 10
-5.1298828125
 20
59.95703125
 30
0.0
  0
VERTEX
  8
0
 10
0.0
 20
60.0
 30
0.0
  0
SEQEND
  8
0
  0
LINE
  8
0
 62
7
 10
-14.0
 20
38.0
 30
0.0
 11
-22.5
 21
38.0
 31
0.0
  0
LINE
  8
0
 62
7
 10
-14.0
 20
32.0
 30
0.0
 11
-14.0
 21
38.0
 31
0.0
  0
LINE
  8
0
 62
7
 10
-9.0
 20
32.0
 30
0.0
 11
-14.0
 21
32.0
 31
0.0
  0
LINE
  8
0
 62
7
 10
-9.0
 20
30.0
 30
0.0
 11
-9.0
 21
32.0
 31
0.0
  0
LINE
  8
0
 62
7
 10
-14.0
 20
30.0
 30
0.0
 11
-9.0
 21
30.0
 31
0.0
  0
LINE
  8
0
 62
7
 10
-14.0
 20
18.0
 30
0.0
 11
-14.0
 21
30.0
 31
0.0
  0
LINE
  8
0
 62
7
 10
-9.0
 20
18.0
 30
0.0
 11
-14.0
 21
18.0
 31
0.0
  0
LINE
  8
0
 62
7
 10
-9.0
 20
16.0
 30
0.0
 11
-9.0
 21
18.0
 31
0.0
  0
LINE
  8
0
 62
7
 10
-14.0
 20
16.0
 30
0.0
 11
-9.0
 21
16.0
 31
0.0
  0
LINE
  8
0
 62
7
 10
-14.0
 20
10.0
 30
0.0
 11
-14.0
 21
16.0
 31
0.0
  0
LINE
  8
0
 62
7
 10
-22.5
 20
10.0
 30
0.0
 11
-14.0
 21
10.0
 31
0.0
  0
LINE
  8
0
 62
7
 10
-22.5
 20
0.0
 30
0.0
 11
-22.5
 21
10.0
 31
0.0
  0
LINE
  8
0
 62
7
 10
0.0
 20
0.0
 30
0.0
 11
-22.5
 21
0.0
 31
0.0
  0
CIRCLE
  8
0
 62
7
 10
0.0
 20
17.0
 30
0.0
 40
1.5
  0
CIRCLE
  8
0
 62
7
 10
0.0
 20
17.0
 30
0.0
 40
1.5
  0
ENDBLK
  0
ENDSEC
  0
SECTION
  2
ENTITIES
  0
INSERT
  2
SKETCH
  8
0
 62
7
 10
0.0
 20
0.0
 30
0.0
  0
ENDSEC
  0
EOF
